<svg xmlns="http://www.w3.org/2000/svg" xml:space="preserve" width="1500" height="1500" fill="#fff" stroke="#fff" data-id="lg_r6xaPyxE2d3FA7Ta74" data-version="1" viewBox="0 0 1500 1500"><path fill="#000" stroke="transparent" d="M0 0h1500v1500H0z"/><g data-padding="20"><g transform="translate(-573.792 -563.353)scale(1.68755)"><path fill="#969696" d="M607.8 569.478h139.86q-46.21 20.57-46.21 31.7 0 .97.48 1.93l.73 2.18 93.4 240.29 90.02-240.29.72-2.42q.49-1.21.49-2.66-1.21-14.52-46.22-30.73h120.02q-29.76 5.81-45.25 33.88l-.73 1.93-129.46 339.5-131.87-339.5-.25-.72-.72-2.18q-15.49-27.1-45.01-32.91"/><rect width="335.239" height="559.35" x="216.95" y="98.413" fill="none" rx="0" ry="0" transform="translate(400.31 400.17)"/></g><path fill="transparent" stroke="transparent" stroke-width="1.789" d="M434.258 250h631.484v1000H434.258z"/></g></svg>